<svg xmlns="http://www.w3.org/2000/svg" viewBox="0 0 328.66 49.83"><g id="Ebene_2" data-name="Ebene 2"><g id="Ebene_1-2" data-name="Ebene 1"><path d="M.4,10.93C.4,4.42,4,0,10.24,0,15.46,0,18.43,3,19,7.43L15.1,8c-.35-3-2.09-4.86-5-4.86-3.68,0-5.8,3.1-5.8,7.78s2.06,7.84,5.89,7.84c2.68,0,4.51-1.8,5-4.74l3.77.76c-.88,4.19-3.74,7.16-8.84,7.16C3.61,21.92.4,17.27.4,10.93Z"/><path d="M39.94,21.42h-3.8V12.29h-9.4v9.13h-3.8V.5h3.8V9.25h9.4V.5h3.8Z"/><path d="M52.9,13H49.21v8.4h-3.8V.5h8.43c5.39,0,7.25,2.83,7.25,6.28a5.69,5.69,0,0,1-4.39,5.74l5,8.9H57.49Zm-3.69-2.83h4c2.86,0,3.92-1.44,3.92-3.41s-1.06-3.39-3.92-3.39h-4Z"/><path d="M65.68,21.42V.5h3.8V21.42Z"/><path d="M72.81,16.06l3.24-1.42a5.52,5.52,0,0,0,5.66,4.25c2.15,0,4.15-.86,4.15-3,0-2-1.24-2.74-3.54-3.21L79.41,12c-3.3-.68-5.48-2.44-5.48-6s2.94-6,7.66-6c4,0,7.13,1.62,8,5.1l-3,1.59a4.92,4.92,0,0,0-5.19-3.8c-2.27,0-3.8,1.06-3.8,2.83s.94,2.59,3.24,3.09l3,.65c3.44.73,5.74,2.33,5.74,6s-2.71,6.42-8,6.42C76.64,21.92,73.66,19.48,72.81,16.06Z"/><path d="M107.19,3.59h-6.34V21.42h-3.8V3.59H90.72V.5h16.47Z"/><path d="M110.34,21.42V.5h3.8V21.42Z"/><path d="M131.46,15.91h-8.19l-1.89,5.51h-3.86L125.3.5h4.13l7.78,20.92h-3.86Zm-1-2.89L128,6a14.8,14.8,0,0,1-.61-2.24h-.06A16,16,0,0,1,126.72,6L124.27,13Z"/><path d="M140.59.5H145l7.87,13.7a16.67,16.67,0,0,1,1.3,2.68h0c0-.76,0-1.59,0-2.71V.5h3.44V21.42h-4.27l-8-13.76A20.65,20.65,0,0,1,144,5H144c.06.79.06,1.62.06,2.77V21.42h-3.45Z"/><path d="M168.67,16.06l3.24-1.42a5.51,5.51,0,0,0,5.65,4.25c2.15,0,4.16-.86,4.16-3,0-2-1.24-2.74-3.54-3.21L175.27,12c-3.3-.68-5.49-2.44-5.49-6s2.95-6,7.67-6c4,0,7.13,1.62,8,5.1l-3,1.59a4.9,4.9,0,0,0-5.18-3.8c-2.27,0-3.8,1.06-3.8,2.83s.94,2.59,3.24,3.09l3,.65c3.45.73,5.75,2.33,5.75,6s-2.71,6.42-8,6.42C172.5,21.92,169.52,19.48,168.67,16.06Z"/><path d="M203.05,3.59h-6.34V21.42h-3.8V3.59h-6.33V.5h16.47Z"/><path d="M213.68,13H210v8.4h-3.8V.5h8.42c5.39,0,7.25,2.83,7.25,6.28a5.69,5.69,0,0,1-4.39,5.74l5,8.9h-4.18ZM210,10.19h4c2.86,0,3.92-1.44,3.92-3.41S216.83,3.39,214,3.39h-4Z"/><path d="M240.25,18.44v3H226.46V.5h13.59v3h-9.79V9.22h9.28v2.95h-9.28v6.27Z"/><path d="M261.85,21.42H258V12.29h-9.39v9.13h-3.81V.5h3.81V9.25H258V.5h3.81Z"/><path d="M267.32.5h3.8V18.3h9.14v3.12H267.32Z"/><path d="M281.31,11c0-6.81,3.89-11,9.9-11s9.9,4.15,9.9,11-3.88,11-9.9,11S281.31,17.65,281.31,11Zm15.86,0c0-4.92-2.18-7.9-6-7.9s-5.95,3-5.95,7.9,2.21,7.9,5.95,7.9S297.17,15.88,297.17,11Z"/><path d="M302.38.5h3.86l3.18,15.32a10.53,10.53,0,0,1,.18,1.42h.08a8,8,0,0,1,.24-1.42L313.6.5h3.83l3.69,15.32a8.91,8.91,0,0,1,.23,1.42h.09a10.53,10.53,0,0,1,.18-1.42L324.8.5h3.86l-5,20.92h-4.42L315.75,6.1a10.55,10.55,0,0,1-.17-1.24h-.12a8.82,8.82,0,0,1-.18,1.24l-3.5,15.32h-4.42Z"/><path d="M0,44.36,2.3,44A4.29,4.29,0,0,0,6.91,48c1.85,0,3.79-.77,3.79-2.93S9.46,42.36,7.46,42L5,41.45C2.57,41,.72,39.68.72,36.75S3,32,6.65,32c3.38,0,6,1.51,6.31,4.85l-2.28.48C10.39,35,9.12,33.77,6.6,33.77c-2.09,0-3.53,1-3.53,2.76S4,39.05,5.86,39.46L8.35,40c2.64.55,4.71,1.73,4.71,4.82,0,2.64-2,5-6.22,5S.29,47.48,0,44.36Z"/><path d="M25.92,44.5H19l-1.75,4.92H14.86l6.45-17h2.26l6.46,17H27.67Zm-.67-1.92-2.38-6.65a11,11,0,0,1-.41-1.29h0A11,11,0,0,1,22,35.93l-2.38,6.65Z"/><path d="M31.7,40.85c0-5.23,2.69-8.88,7.76-8.88,4.15,0,6.31,2.45,6.74,6l-2.33.24c-.33-2.57-1.89-4.27-4.53-4.27-3.34,0-5.24,2.78-5.24,6.91s1.8,7,5.28,7c2.43,0,4.13-1.61,4.61-4.16l2.21.39c-.65,3.21-2.71,5.76-6.82,5.76C34.1,49.83,31.7,45.8,31.7,40.85Z"/><path d="M63.43,49.42H61.15V41.67H52.56v7.75H50.28v-17h2.28v7.37h8.59V32.38h2.28Z"/><path d="M66.55,32.38H69L73,44.91a17.06,17.06,0,0,1,.63,2.3h.09a17.06,17.06,0,0,1,.63-2.3l4.08-12.53h2.4L75,49.42H72.46Z"/><path d="M94.7,47.5v1.92H84v-17H94.54V34.3H86.26v5.42h7.87v1.92H86.26V47.5Z"/><path d="M105,42.34h-3.46v7.08H99.26v-17h6.32c4.46,0,5.64,2.5,5.64,5A4.57,4.57,0,0,1,107.38,42l4.36,7.39h-2.56Zm-3.46-1.92h3.77c2.64,0,3.51-1.34,3.51-3.05s-.89-3.07-3.51-3.07h-3.77Z"/><path d="M113.54,44.36l2.31-.34A4.28,4.28,0,0,0,120.46,48c1.84,0,3.79-.77,3.79-2.93S123,42.36,121,42l-2.47-.51c-2.43-.5-4.28-1.77-4.28-4.7S116.57,32,120.19,32c3.39,0,6,1.51,6.31,4.85l-2.28.48c-.28-2.28-1.56-3.53-4.08-3.53-2.08,0-3.52,1-3.52,2.76s.88,2.52,2.78,2.93l2.5.53c2.64.55,4.7,1.73,4.7,4.82,0,2.64-2,5-6.22,5S113.83,47.48,113.54,44.36Z"/><path d="M140.78,34.3h-5.35V49.42h-2.28V34.3H127.8V32.38h13Z"/><path d="M151.37,44.5h-7l-1.76,4.92H140.3l6.46-17H149l6.45,17h-2.35Zm-5-13.15h-2.33V29h2.33Zm4.32,11.23-2.38-6.65a11,11,0,0,1-.41-1.29h0a11.1,11.1,0,0,1-.4,1.29l-2.38,6.65Zm1-11.23H149.4V29h2.33Z"/><path d="M159,32.38h2.76l7.23,12.41A13.33,13.33,0,0,1,170,47h0c0-.6-.07-1.22-.07-2.25V32.38h2v17h-2.76L162,37A11.63,11.63,0,0,1,161,34.83h-.05c.05.6.07,1.22.07,2.25V49.42h-2Z"/><path d="M177.41,32.38H183c4.9,0,8.09,3.43,8.09,8.5s-3.17,8.54-8.14,8.54h-5.54ZM182.9,47.5c3.68,0,5.76-3,5.76-6.62,0-3.8-2-6.58-5.71-6.58h-3.26V47.5Z"/><path d="M195.17,49.42v-17h2.28v17Z"/><path d="M201.53,40.9c0-5.21,2.8-8.93,7.85-8.93,4.7,0,6.21,3.27,6.5,5.16l-2.26.31a4.07,4.07,0,0,0-4.32-3.55c-3.48,0-5.45,2.88-5.45,7,0,3.89,1.78,7,5.48,7,4.2,0,4.82-3.52,4.82-5.16v-.28h-5V40.52h7v8.9h-1.65l-.32-2.74A5.38,5.38,0,0,1,209,49.83C204.33,49.83,201.53,46,201.53,40.9Z"/><path d="M231.48,47.5v1.92H220.75v-17h10.56V34.3H223v5.42h7.87v1.92H223V47.5Z"/><path d="M241.77,42.34h-3.45v7.08H236v-17h6.31c4.47,0,5.64,2.5,5.64,5A4.56,4.56,0,0,1,244.15,42l4.37,7.39H246Zm-3.45-1.92h3.77c2.64,0,3.5-1.34,3.5-3.05s-.89-3.07-3.5-3.07h-3.77Z"/></g></g></svg>