<?xml version="1.0" encoding="UTF-8"?>
<svg width="18px" height="19px" viewBox="0 0 18 19" version="1.1" xmlns="http://www.w3.org/2000/svg" xmlns:xlink="http://www.w3.org/1999/xlink">
    <title>facebook-circular-logo</title>
    <g id="Page-1" stroke="none" stroke-width="1" fill="none" fill-rule="evenodd">
        <g id="facebook-circular-logo" fill="#F6F6F6" fill-rule="nonzero">
            <path d="M9.00005368,0.349 C4.02951264,0.349 0,4.37851264 0,9.34905368 C0,13.8070483 3.24469602,17.4990146 7.49902479,18.2139385 L7.49902479,11.2267087 L5.32794933,11.2267087 L5.32794933,8.71228933 L7.49902479,8.71228933 L7.49902479,6.85825401 C7.49902479,4.70704052 8.81292162,3.53475425 10.7322331,3.53475425 C11.651467,3.53475425 12.441437,3.60325124 12.6707623,3.63341998 L12.6707623,5.88201085 L11.3395802,5.88265502 C10.296021,5.88265502 10.0948246,6.37845299 10.0948246,7.10626036 L10.0948246,8.71100099 L12.5848727,8.71100099 L12.2601025,11.2254203 L10.0948246,11.2254203 L10.0948246,18.2740613 C14.5477731,17.7320976 18,13.9460821 18,9.34647699 C18,4.37851264 13.9704874,0.349 9.00005368,0.349 Z" id="Path"></path>
        </g>
    </g>
</svg>