<?xml version="1.0" standalone="no"?>
<!DOCTYPE svg PUBLIC "-//W3C//DTD SVG 20010904//EN"
 "http://www.w3.org/TR/2001/REC-SVG-20010904/DTD/svg10.dtd">
<svg version="1.0" xmlns="http://www.w3.org/2000/svg"
 width="600.000000pt" height="600.000000pt" viewBox="0 0 600.000000 600.000000"
 preserveAspectRatio="xMidYMid meet">
<metadata>
Created by potrace 1.14, written by Peter Selinger 2001-2017
</metadata>
<g transform="translate(0.000000,600.000000) scale(0.100000,-0.100000)"
fill="#000000" stroke="none">
<path d="M2735 5989 c-1170 -102 -2188 -898 -2570 -2010 -375 -1089 -98 -2286
715 -3099 813 -813 2010 -1090 3099 -715 867 298 1558 989 1856 1856 375 1089
98 2286 -715 3099 -629 629 -1498 945 -2385 869z m-385 -2120 c226 -28 409
-138 523 -315 43 -67 97 -188 97 -216 0 -10 -50 -30 -149 -61 -81 -26 -151
-47 -155 -47 -3 0 -6 6 -6 14 0 38 -74 158 -130 209 -75 69 -144 97 -260 104
-154 10 -266 -31 -365 -131 -106 -108 -155 -241 -155 -426 0 -177 47 -309 148
-409 93 -94 211 -141 352 -141 188 0 338 96 417 268 20 43 39 72 46 69 7 -2
64 -19 127 -37 63 -18 125 -36 137 -41 l22 -8 -19 -56 c-67 -194 -218 -362
-397 -441 -194 -86 -464 -90 -678 -9 -177 66 -331 207 -419 382 -68 135 -103
351 -86 521 23 221 96 386 234 530 183 192 435 277 716 241z m1807 -22 c45
-13 107 -39 138 -58 82 -49 177 -154 219 -242 59 -121 63 -113 -99 -158 -77
-21 -147 -39 -155 -39 -9 0 -21 15 -28 34 -58 161 -276 239 -455 164 -57 -25
-93 -64 -108 -120 -22 -84 18 -157 108 -196 27 -11 136 -39 244 -61 107 -22
220 -49 250 -60 229 -78 329 -211 329 -436 0 -242 -125 -408 -370 -492 -163
-55 -392 -63 -549 -17 -160 46 -297 156 -365 294 -30 62 -71 180 -62 180 2 0
247 73 287 85 12 4 21 -7 34 -42 44 -118 124 -197 229 -228 72 -22 229 -20
304 4 115 36 157 86 150 178 -4 44 -11 60 -38 88 -48 50 -112 73 -324 117
-324 67 -441 130 -515 277 -26 51 -51 158 -51 221 0 67 26 177 57 240 51 105
175 209 307 257 132 48 318 52 463 10z"/>
</g>
</svg>
